<?xml version="1.0" encoding="UTF-8" standalone="no"?>
<svg
   width="191.020000" 
   height="59.250000"
   version="1.1"
   xmlns:svg="http://www.w3.org/2000/svg"
   xmlns="http://www.w3.org/2000/svg">
  <g id="layer001_datatype000">
    <path style="fill:#ff9d9d"
          d="M 155.761000 41.446000 L 155.761000 41.308000 L 155.762000 41.170000 L 155.764000 41.033000 L 155.768000 40.757000 L 155.771000 40.620000 L 155.775000 40.483000 L 155.779000 40.345000 L 155.785000 40.208000 L 155.791000 40.072000 L 155.798000 39.935000 L 155.806000 39.798000 L 155.815000 39.662000 L 155.825000 39.526000 L 155.849000 39.254000 L 155.863000 39.119000 L 155.879000 38.984000 L 155.896000 38.849000 L 155.914000 38.715000 L 155.934000 38.580000 L 155.956000 38.447000 L 155.979000 38.313000 L 156.004000 38.180000 L 156.030000 38.048000 L 156.059000 37.916000 L 156.090000 37.784000 L 156.122000 37.654000 L 156.157000 37.523000 L 156.193000 37.394000 L 156.232000 37.265000 L 156.273000 37.137000 L 156.316000 37.010000 L 156.361000 36.884000 L 156.409000 36.759000 L 156.459000 36.635000 L 156.511000 36.512000 L 156.566000 36.390000 L 156.623000 36.269000 L 156.683000 36.149000 L 156.745000 36.031000 L 156.809000 35.913000 L 156.875000 35.797000 L 156.944000 35.683000 L 157.015000 35.569000 L 157.088000 35.457000 L 157.164000 35.347000 L 157.241000 35.238000 L 157.321000 35.131000 L 157.403000 35.025000 L 157.486000 34.921000 L 157.572000 34.818000 L 157.660000 34.717000 L 157.750000 34.618000 L 157.842000 34.521000 L 157.935000 34.425000 L 158.031000 34.332000 L 158.128000 34.240000 L 158.227000 34.150000 L 158.328000 34.062000 L 158.431000 33.976000 L 158.535000 33.893000 L 158.641000 33.811000 L 158.748000 33.731000 L 158.857000 33.654000 L 158.967000 33.578000 L 159.079000 33.505000 L 159.193000 33.434000 L 159.307000 33.365000 L 159.423000 33.299000 L 159.541000 33.235000 L 159.659000 33.173000 L 159.779000 33.113000 L 159.900000 33.056000 L 160.022000 33.001000 L 160.145000 32.949000 L 160.269000 32.899000 L 160.394000 32.851000 L 160.520000 32.806000 L 160.647000 32.763000 L 160.775000 32.722000 L 160.904000 32.683000 L 161.033000 32.647000 L 161.164000 32.612000 L 161.294000 32.580000 L 161.426000 32.549000 L 161.558000 32.520000 L 161.690000 32.494000 L 161.823000 32.469000 L 161.957000 32.446000 L 162.090000 32.424000 L 162.225000 32.404000 L 162.359000 32.386000 L 162.494000 32.369000 L 162.629000 32.353000 L 162.764000 32.339000 L 163.036000 32.315000 L 163.172000 32.305000 L 163.308000 32.296000 L 163.445000 32.288000 L 163.582000 32.281000 L 163.718000 32.275000 L 163.855000 32.269000 L 163.993000 32.265000 L 164.130000 32.261000 L 164.267000 32.258000 L 164.543000 32.254000 L 164.680000 32.252000 L 164.818000 32.251000 L 164.956000 32.251000 L 165.095000 32.250000 L 165.520000 32.250000 L 175.520000 32.500000 L 175.520000 32.625000 L 181.020000 32.625000 L 181.020000 32.500000 L 191.020000 32.250000 L 191.020000 31.750000 L 181.020000 31.500000 L 181.020000 31.250000 L 191.020000 31.000000 L 191.020000 30.500000 L 181.020000 30.250000 L 181.020000 30.125000 L 175.520000 30.125000 L 175.520000 30.250000 L 165.520000 30.500000 L 165.095000 30.500000 L 164.956000 30.499000 L 164.818000 30.499000 L 164.680000 30.498000 L 164.543000 30.496000 L 164.267000 30.492000 L 164.130000 30.489000 L 163.993000 30.485000 L 163.855000 30.481000 L 163.718000 30.475000 L 163.582000 30.469000 L 163.445000 30.462000 L 163.308000 30.454000 L 163.172000 30.445000 L 163.036000 30.435000 L 162.764000 30.411000 L 162.629000 30.397000 L 162.494000 30.381000 L 162.359000 30.364000 L 162.225000 30.346000 L 162.090000 30.326000 L 161.957000 30.304000 L 161.823000 30.281000 L 161.690000 30.256000 L 161.558000 30.230000 L 161.426000 30.201000 L 161.294000 30.170000 L 161.164000 30.138000 L 161.033000 30.103000 L 160.904000 30.067000 L 160.775000 30.028000 L 160.647000 29.987000 L 160.520000 29.944000 L 160.394000 29.899000 L 160.269000 29.851000 L 160.145000 29.801000 L 160.022000 29.749000 L 159.900000 29.694000 L 159.779000 29.637000 L 159.659000 29.577000 L 159.541000 29.515000 L 159.423000 29.451000 L 159.307000 29.385000 L 159.193000 29.316000 L 159.079000 29.245000 L 158.967000 29.172000 L 158.857000 29.096000 L 158.748000 29.019000 L 158.641000 28.939000 L 158.535000 28.857000 L 158.431000 28.774000 L 158.328000 28.688000 L 158.227000 28.600000 L 158.128000 28.510000 L 158.031000 28.418000 L 157.935000 28.325000 L 157.842000 28.229000 L 157.750000 28.132000 L 157.660000 28.033000 L 157.572000 27.932000 L 157.486000 27.829000 L 157.403000 27.725000 L 157.321000 27.619000 L 157.241000 27.512000 L 157.164000 27.403000 L 157.088000 27.293000 L 157.015000 27.181000 L 156.944000 27.067000 L 156.875000 26.953000 L 156.809000 26.837000 L 156.745000 26.719000 L 156.683000 26.601000 L 156.623000 26.481000 L 156.566000 26.360000 L 156.511000 26.238000 L 156.459000 26.115000 L 156.409000 25.991000 L 156.361000 25.866000 L 156.316000 25.740000 L 156.273000 25.613000 L 156.232000 25.485000 L 156.193000 25.356000 L 156.157000 25.227000 L 156.122000 25.096000 L 156.090000 24.966000 L 156.059000 24.834000 L 156.030000 24.702000 L 156.004000 24.570000 L 155.979000 24.437000 L 155.956000 24.303000 L 155.934000 24.170000 L 155.914000 24.035000 L 155.896000 23.901000 L 155.879000 23.766000 L 155.863000 23.631000 L 155.849000 23.496000 L 155.825000 23.224000 L 155.815000 23.088000 L 155.806000 22.952000 L 155.798000 22.815000 L 155.791000 22.678000 L 155.785000 22.542000 L 155.779000 22.405000 L 155.775000 22.267000 L 155.771000 22.130000 L 155.768000 21.993000 L 155.764000 21.717000 L 155.762000 21.580000 L 155.761000 21.442000 L 155.761000 21.304000 L 155.760000 21.165000 L 155.760000 18.334000 L 155.759000 18.194000 L 155.759000 18.055000 L 155.758000 17.916000 L 155.756000 17.777000 L 155.752000 17.497000 L 155.749000 17.358000 L 155.745000 17.218000 L 155.735000 16.938000 L 155.729000 16.797000 L 155.713000 16.517000 L 155.704000 16.377000 L 155.693000 16.236000 L 155.681000 16.096000 L 155.668000 15.955000 L 155.654000 15.815000 L 155.638000 15.675000 L 155.620000 15.534000 L 155.601000 15.394000 L 155.580000 15.254000 L 155.558000 15.114000 L 155.533000 14.974000 L 155.507000 14.835000 L 155.479000 14.695000 L 155.449000 14.556000 L 155.417000 14.418000 L 155.382000 14.279000 L 155.346000 14.141000 L 155.307000 14.004000 L 155.266000 13.867000 L 155.222000 13.731000 L 155.176000 13.595000 L 155.128000 13.461000 L 155.077000 13.327000 L 155.023000 13.194000 L 154.967000 13.062000 L 154.908000 12.931000 L 154.847000 12.801000 L 154.783000 12.672000 L 154.716000 12.545000 L 154.647000 12.419000 L 154.576000 12.295000 L 154.502000 12.171000 L 154.426000 12.050000 L 154.347000 11.930000 L 154.266000 11.811000 L 154.183000 11.694000 L 154.098000 11.579000 L 154.010000 11.465000 L 153.920000 11.353000 L 153.828000 11.243000 L 153.734000 11.135000 L 153.637000 11.029000 L 153.539000 10.924000 L 153.438000 10.822000 L 153.336000 10.721000 L 153.231000 10.623000 L 153.125000 10.526000 L 153.017000 10.432000 L 152.907000 10.340000 L 152.795000 10.250000 L 152.681000 10.162000 L 152.566000 10.077000 L 152.449000 9.994000 L 152.330000 9.913000 L 152.210000 9.834000 L 152.089000 9.758000 L 151.965000 9.684000 L 151.841000 9.613000 L 151.715000 9.544000 L 151.588000 9.477000 L 151.459000 9.413000 L 151.329000 9.352000 L 151.198000 9.293000 L 151.066000 9.237000 L 150.933000 9.183000 L 150.799000 9.132000 L 150.665000 9.084000 L 150.529000 9.038000 L 150.393000 8.994000 L 150.256000 8.953000 L 150.119000 8.914000 L 149.981000 8.878000 L 149.842000 8.843000 L 149.704000 8.811000 L 149.565000 8.781000 L 149.425000 8.753000 L 149.286000 8.727000 L 149.146000 8.702000 L 149.006000 8.680000 L 148.866000 8.659000 L 148.726000 8.640000 L 148.585000 8.622000 L 148.445000 8.606000 L 148.305000 8.592000 L 148.164000 8.579000 L 148.024000 8.567000 L 147.883000 8.556000 L 147.743000 8.547000 L 147.463000 8.531000 L 147.322000 8.525000 L 147.042000 8.515000 L 146.902000 8.511000 L 146.763000 8.508000 L 146.483000 8.504000 L 146.344000 8.502000 L 146.205000 8.501000 L 146.066000 8.501000 L 145.926000 8.500000 L 45.084000 8.500000 L 44.944000 8.501000 L 44.805000 8.501000 L 44.666000 8.502000 L 44.527000 8.504000 L 44.247000 8.508000 L 44.108000 8.511000 L 43.968000 8.515000 L 43.688000 8.525000 L 43.547000 8.531000 L 43.267000 8.547000 L 43.127000 8.556000 L 42.986000 8.567000 L 42.846000 8.579000 L 42.705000 8.592000 L 42.565000 8.606000 L 42.425000 8.622000 L 42.284000 8.640000 L 42.144000 8.659000 L 42.004000 8.680000 L 41.864000 8.702000 L 41.724000 8.727000 L 41.585000 8.753000 L 41.445000 8.781000 L 41.306000 8.811000 L 41.168000 8.843000 L 41.029000 8.878000 L 40.891000 8.914000 L 40.754000 8.953000 L 40.617000 8.994000 L 40.481000 9.038000 L 40.345000 9.084000 L 40.211000 9.132000 L 40.077000 9.183000 L 39.944000 9.237000 L 39.812000 9.293000 L 39.681000 9.352000 L 39.551000 9.413000 L 39.422000 9.477000 L 39.295000 9.544000 L 39.169000 9.613000 L 39.045000 9.684000 L 38.921000 9.758000 L 38.800000 9.834000 L 38.680000 9.913000 L 38.561000 9.994000 L 38.444000 10.077000 L 38.329000 10.162000 L 38.215000 10.250000 L 38.103000 10.340000 L 37.993000 10.432000 L 37.885000 10.526000 L 37.779000 10.623000 L 37.674000 10.721000 L 37.572000 10.822000 L 37.471000 10.924000 L 37.373000 11.029000 L 37.276000 11.135000 L 37.182000 11.243000 L 37.090000 11.353000 L 37.000000 11.465000 L 36.912000 11.579000 L 36.827000 11.694000 L 36.744000 11.811000 L 36.663000 11.930000 L 36.584000 12.050000 L 36.508000 12.171000 L 36.434000 12.295000 L 36.363000 12.419000 L 36.294000 12.545000 L 36.227000 12.672000 L 36.163000 12.801000 L 36.102000 12.931000 L 36.043000 13.062000 L 35.987000 13.194000 L 35.933000 13.327000 L 35.882000 13.461000 L 35.834000 13.595000 L 35.788000 13.731000 L 35.744000 13.867000 L 35.703000 14.004000 L 35.664000 14.141000 L 35.628000 14.279000 L 35.593000 14.418000 L 35.561000 14.556000 L 35.531000 14.695000 L 35.503000 14.835000 L 35.477000 14.974000 L 35.452000 15.114000 L 35.430000 15.254000 L 35.409000 15.394000 L 35.390000 15.534000 L 35.372000 15.675000 L 35.356000 15.815000 L 35.342000 15.955000 L 35.329000 16.096000 L 35.317000 16.236000 L 35.306000 16.377000 L 35.297000 16.517000 L 35.281000 16.797000 L 35.275000 16.938000 L 35.265000 17.218000 L 35.261000 17.358000 L 35.258000 17.497000 L 35.254000 17.777000 L 35.252000 17.916000 L 35.251000 18.055000 L 35.251000 18.194000 L 35.250000 18.334000 L 35.250000 21.165000 L 35.249000 21.304000 L 35.249000 21.442000 L 35.248000 21.580000 L 35.246000 21.717000 L 35.242000 21.993000 L 35.239000 22.130000 L 35.235000 22.267000 L 35.231000 22.405000 L 35.225000 22.542000 L 35.219000 22.678000 L 35.212000 22.815000 L 35.204000 22.952000 L 35.195000 23.088000 L 35.185000 23.224000 L 35.161000 23.496000 L 35.147000 23.631000 L 35.131000 23.766000 L 35.114000 23.901000 L 35.096000 24.035000 L 35.076000 24.170000 L 35.054000 24.303000 L 35.031000 24.437000 L 35.006000 24.570000 L 34.980000 24.702000 L 34.951000 24.834000 L 34.920000 24.966000 L 34.888000 25.096000 L 34.853000 25.227000 L 34.817000 25.356000 L 34.778000 25.485000 L 34.737000 25.613000 L 34.694000 25.740000 L 34.649000 25.866000 L 34.601000 25.991000 L 34.551000 26.115000 L 34.499000 26.238000 L 34.444000 26.360000 L 34.387000 26.481000 L 34.327000 26.601000 L 34.265000 26.719000 L 34.201000 26.837000 L 34.135000 26.953000 L 34.066000 27.067000 L 33.995000 27.181000 L 33.922000 27.293000 L 33.846000 27.403000 L 33.769000 27.512000 L 33.689000 27.619000 L 33.607000 27.725000 L 33.524000 27.829000 L 33.438000 27.932000 L 33.350000 28.033000 L 33.260000 28.132000 L 33.168000 28.229000 L 33.075000 28.325000 L 32.979000 28.418000 L 32.882000 28.510000 L 32.783000 28.600000 L 32.682000 28.688000 L 32.579000 28.774000 L 32.475000 28.857000 L 32.369000 28.939000 L 32.262000 29.019000 L 32.153000 29.096000 L 32.043000 29.172000 L 31.931000 29.245000 L 31.817000 29.316000 L 31.703000 29.385000 L 31.587000 29.451000 L 31.469000 29.515000 L 31.351000 29.577000 L 31.231000 29.637000 L 31.110000 29.694000 L 30.988000 29.749000 L 30.865000 29.801000 L 30.741000 29.851000 L 30.616000 29.899000 L 30.490000 29.944000 L 30.363000 29.987000 L 30.235000 30.028000 L 30.106000 30.067000 L 29.977000 30.103000 L 29.846000 30.138000 L 29.716000 30.170000 L 29.584000 30.201000 L 29.452000 30.230000 L 29.320000 30.256000 L 29.187000 30.281000 L 29.053000 30.304000 L 28.920000 30.326000 L 28.785000 30.346000 L 28.651000 30.364000 L 28.516000 30.381000 L 28.381000 30.397000 L 28.246000 30.411000 L 27.974000 30.435000 L 27.838000 30.445000 L 27.702000 30.454000 L 27.565000 30.462000 L 27.428000 30.469000 L 27.292000 30.475000 L 27.155000 30.481000 L 27.017000 30.485000 L 26.880000 30.489000 L 26.743000 30.492000 L 26.467000 30.496000 L 26.330000 30.498000 L 26.192000 30.499000 L 26.054000 30.499000 L 25.915000 30.500000 L 25.500000 30.500000 L 15.500000 30.250000 L 15.500000 30.125000 L 10.000000 30.125000 L 10.000000 30.250000 L 0.000000 30.500000 L 0.000000 31.000000 L 10.000000 31.250000 L 10.000000 31.500000 L 15.500000 31.500000 L 15.500000 31.250000 L 25.500000 31.000000 L 25.916000 31.000000 L 26.056000 30.999000 L 26.195000 30.999000 L 26.334000 30.998000 L 26.473000 30.996000 L 26.753000 30.992000 L 26.892000 30.989000 L 27.032000 30.985000 L 27.312000 30.975000 L 27.453000 30.969000 L 27.733000 30.953000 L 27.873000 30.944000 L 28.014000 30.933000 L 28.154000 30.921000 L 28.295000 30.908000 L 28.435000 30.894000 L 28.575000 30.878000 L 28.716000 30.860000 L 28.856000 30.841000 L 28.996000 30.820000 L 29.136000 30.798000 L 29.276000 30.773000 L 29.415000 30.747000 L 29.555000 30.719000 L 29.694000 30.689000 L 29.832000 30.657000 L 29.971000 30.622000 L 30.109000 30.586000 L 30.246000 30.547000 L 30.383000 30.506000 L 30.519000 30.462000 L 30.655000 30.416000 L 30.789000 30.368000 L 30.923000 30.317000 L 31.056000 30.263000 L 31.188000 30.207000 L 31.319000 30.148000 L 31.449000 30.087000 L 31.578000 30.023000 L 31.705000 29.956000 L 31.831000 29.887000 L 31.955000 29.816000 L 32.079000 29.742000 L 32.200000 29.666000 L 32.320000 29.587000 L 32.439000 29.506000 L 32.556000 29.423000 L 32.671000 29.338000 L 32.785000 29.250000 L 32.897000 29.160000 L 33.007000 29.068000 L 33.115000 28.974000 L 33.221000 28.877000 L 33.326000 28.779000 L 33.428000 28.678000 L 33.529000 28.576000 L 33.627000 28.471000 L 33.724000 28.365000 L 33.818000 28.257000 L 33.910000 28.147000 L 34.000000 28.035000 L 34.088000 27.921000 L 34.173000 27.806000 L 34.256000 27.689000 L 34.337000 27.570000 L 34.416000 27.450000 L 34.492000 27.329000 L 34.566000 27.205000 L 34.637000 27.081000 L 34.706000 26.955000 L 34.773000 26.828000 L 34.837000 26.699000 L 34.898000 26.569000 L 34.957000 26.438000 L 35.013000 26.306000 L 35.067000 26.173000 L 35.118000 26.039000 L 35.166000 25.905000 L 35.212000 25.769000 L 35.256000 25.633000 L 35.297000 25.496000 L 35.336000 25.359000 L 35.372000 25.221000 L 35.407000 25.082000 L 35.439000 24.944000 L 35.469000 24.805000 L 35.497000 24.665000 L 35.523000 24.526000 L 35.548000 24.386000 L 35.570000 24.246000 L 35.591000 24.106000 L 35.610000 23.966000 L 35.628000 23.825000 L 35.644000 23.685000 L 35.658000 23.545000 L 35.671000 23.404000 L 35.683000 23.264000 L 35.694000 23.123000 L 35.703000 22.983000 L 35.719000 22.703000 L 35.725000 22.562000 L 35.735000 22.282000 L 35.739000 22.142000 L 35.742000 22.003000 L 35.746000 21.723000 L 35.748000 21.584000 L 35.749000 21.445000 L 35.749000 21.306000 L 35.750000 21.166000 L 35.750000 18.335000 L 35.751000 18.196000 L 35.751000 18.058000 L 35.752000 17.920000 L 35.754000 17.783000 L 35.758000 17.507000 L 35.761000 17.370000 L 35.765000 17.233000 L 35.769000 17.095000 L 35.775000 16.958000 L 35.781000 16.822000 L 35.788000 16.685000 L 35.796000 16.548000 L 35.805000 16.412000 L 35.815000 16.276000 L 35.839000 16.004000 L 35.853000 15.869000 L 35.869000 15.734000 L 35.886000 15.599000 L 35.904000 15.465000 L 35.924000 15.330000 L 35.946000 15.197000 L 35.969000 15.063000 L 35.994000 14.930000 L 36.020000 14.798000 L 36.049000 14.666000 L 36.080000 14.534000 L 36.112000 14.404000 L 36.147000 14.273000 L 36.183000 14.144000 L 36.222000 14.015000 L 36.263000 13.887000 L 36.306000 13.760000 L 36.351000 13.634000 L 36.399000 13.509000 L 36.449000 13.385000 L 36.501000 13.262000 L 36.556000 13.140000 L 36.613000 13.019000 L 36.673000 12.899000 L 36.735000 12.781000 L 36.799000 12.663000 L 36.865000 12.547000 L 36.934000 12.433000 L 37.005000 12.319000 L 37.078000 12.207000 L 37.154000 12.097000 L 37.231000 11.988000 L 37.311000 11.881000 L 37.393000 11.775000 L 37.476000 11.671000 L 37.562000 11.568000 L 37.650000 11.467000 L 37.740000 11.368000 L 37.832000 11.271000 L 37.925000 11.175000 L 38.021000 11.082000 L 38.118000 10.990000 L 38.217000 10.900000 L 38.318000 10.812000 L 38.421000 10.726000 L 38.525000 10.643000 L 38.631000 10.561000 L 38.738000 10.481000 L 38.847000 10.404000 L 38.957000 10.328000 L 39.069000 10.255000 L 39.183000 10.184000 L 39.297000 10.115000 L 39.413000 10.049000 L 39.531000 9.985000 L 39.649000 9.923000 L 39.769000 9.863000 L 39.890000 9.806000 L 40.012000 9.751000 L 40.135000 9.699000 L 40.259000 9.649000 L 40.384000 9.601000 L 40.510000 9.556000 L 40.637000 9.513000 L 40.765000 9.472000 L 40.894000 9.433000 L 41.023000 9.397000 L 41.154000 9.362000 L 41.284000 9.330000 L 41.416000 9.299000 L 41.548000 9.270000 L 41.680000 9.244000 L 41.813000 9.219000 L 41.947000 9.196000 L 42.080000 9.174000 L 42.215000 9.154000 L 42.349000 9.136000 L 42.484000 9.119000 L 42.619000 9.103000 L 42.754000 9.089000 L 43.026000 9.065000 L 43.162000 9.055000 L 43.298000 9.046000 L 43.435000 9.038000 L 43.572000 9.031000 L 43.708000 9.025000 L 43.845000 9.019000 L 43.983000 9.015000 L 44.120000 9.011000 L 44.257000 9.008000 L 44.533000 9.004000 L 44.670000 9.002000 L 44.808000 9.001000 L 44.946000 9.001000 L 45.085000 9.000000 L 145.925000 9.000000 L 146.064000 9.001000 L 146.202000 9.001000 L 146.340000 9.002000 L 146.477000 9.004000 L 146.753000 9.008000 L 146.890000 9.011000 L 147.027000 9.015000 L 147.165000 9.019000 L 147.302000 9.025000 L 147.438000 9.031000 L 147.575000 9.038000 L 147.712000 9.046000 L 147.848000 9.055000 L 147.984000 9.065000 L 148.256000 9.089000 L 148.391000 9.103000 L 148.526000 9.119000 L 148.661000 9.136000 L 148.795000 9.154000 L 148.930000 9.174000 L 149.063000 9.196000 L 149.197000 9.219000 L 149.330000 9.244000 L 149.462000 9.270000 L 149.594000 9.299000 L 149.726000 9.330000 L 149.856000 9.362000 L 149.987000 9.397000 L 150.116000 9.433000 L 150.245000 9.472000 L 150.373000 9.513000 L 150.500000 9.556000 L 150.626000 9.601000 L 150.751000 9.649000 L 150.875000 9.699000 L 150.998000 9.751000 L 151.120000 9.806000 L 151.241000 9.863000 L 151.361000 9.923000 L 151.479000 9.985000 L 151.597000 10.049000 L 151.713000 10.115000 L 151.827000 10.184000 L 151.941000 10.255000 L 152.053000 10.328000 L 152.163000 10.404000 L 152.272000 10.481000 L 152.379000 10.561000 L 152.485000 10.643000 L 152.589000 10.726000 L 152.692000 10.812000 L 152.793000 10.900000 L 152.892000 10.990000 L 152.989000 11.082000 L 153.085000 11.175000 L 153.178000 11.271000 L 153.270000 11.368000 L 153.360000 11.467000 L 153.448000 11.568000 L 153.534000 11.671000 L 153.617000 11.775000 L 153.699000 11.881000 L 153.779000 11.988000 L 153.856000 12.097000 L 153.932000 12.207000 L 154.005000 12.319000 L 154.076000 12.433000 L 154.145000 12.547000 L 154.211000 12.663000 L 154.275000 12.781000 L 154.337000 12.899000 L 154.397000 13.019000 L 154.454000 13.140000 L 154.509000 13.262000 L 154.561000 13.385000 L 154.611000 13.509000 L 154.659000 13.634000 L 154.704000 13.760000 L 154.747000 13.887000 L 154.788000 14.015000 L 154.827000 14.144000 L 154.863000 14.273000 L 154.898000 14.404000 L 154.930000 14.534000 L 154.961000 14.666000 L 154.990000 14.798000 L 155.016000 14.930000 L 155.041000 15.063000 L 155.064000 15.197000 L 155.086000 15.330000 L 155.106000 15.465000 L 155.124000 15.599000 L 155.141000 15.734000 L 155.157000 15.869000 L 155.171000 16.004000 L 155.195000 16.276000 L 155.205000 16.412000 L 155.214000 16.548000 L 155.222000 16.685000 L 155.229000 16.822000 L 155.235000 16.958000 L 155.241000 17.095000 L 155.245000 17.233000 L 155.249000 17.370000 L 155.252000 17.507000 L 155.256000 17.783000 L 155.258000 17.920000 L 155.259000 18.058000 L 155.259000 18.196000 L 155.260000 18.335000 L 155.260000 21.166000 L 155.261000 21.306000 L 155.261000 21.445000 L 155.262000 21.584000 L 155.264000 21.723000 L 155.268000 22.003000 L 155.271000 22.142000 L 155.275000 22.282000 L 155.285000 22.562000 L 155.291000 22.703000 L 155.307000 22.983000 L 155.316000 23.123000 L 155.327000 23.264000 L 155.339000 23.404000 L 155.352000 23.545000 L 155.366000 23.685000 L 155.382000 23.825000 L 155.400000 23.966000 L 155.419000 24.106000 L 155.440000 24.246000 L 155.462000 24.386000 L 155.487000 24.526000 L 155.513000 24.665000 L 155.541000 24.805000 L 155.571000 24.944000 L 155.603000 25.082000 L 155.638000 25.221000 L 155.674000 25.359000 L 155.713000 25.496000 L 155.754000 25.633000 L 155.798000 25.769000 L 155.844000 25.905000 L 155.892000 26.039000 L 155.943000 26.173000 L 155.997000 26.306000 L 156.053000 26.438000 L 156.112000 26.569000 L 156.173000 26.699000 L 156.237000 26.828000 L 156.304000 26.955000 L 156.373000 27.081000 L 156.444000 27.205000 L 156.518000 27.329000 L 156.594000 27.450000 L 156.673000 27.570000 L 156.754000 27.689000 L 156.837000 27.806000 L 156.922000 27.921000 L 157.010000 28.035000 L 157.100000 28.147000 L 157.192000 28.257000 L 157.286000 28.365000 L 157.383000 28.471000 L 157.481000 28.576000 L 157.582000 28.678000 L 157.684000 28.779000 L 157.789000 28.877000 L 157.895000 28.974000 L 158.003000 29.068000 L 158.113000 29.160000 L 158.225000 29.250000 L 158.339000 29.338000 L 158.454000 29.423000 L 158.571000 29.506000 L 158.690000 29.587000 L 158.810000 29.666000 L 158.931000 29.742000 L 159.055000 29.816000 L 159.179000 29.887000 L 159.305000 29.956000 L 159.432000 30.023000 L 159.561000 30.087000 L 159.691000 30.148000 L 159.822000 30.207000 L 159.954000 30.263000 L 160.087000 30.317000 L 160.221000 30.368000 L 160.355000 30.416000 L 160.491000 30.462000 L 160.627000 30.506000 L 160.764000 30.547000 L 160.901000 30.586000 L 161.039000 30.622000 L 161.178000 30.657000 L 161.316000 30.689000 L 161.455000 30.719000 L 161.595000 30.747000 L 161.734000 30.773000 L 161.874000 30.798000 L 162.014000 30.820000 L 162.154000 30.841000 L 162.294000 30.860000 L 162.435000 30.878000 L 162.575000 30.894000 L 162.715000 30.908000 L 162.856000 30.921000 L 162.996000 30.933000 L 163.137000 30.944000 L 163.277000 30.953000 L 163.557000 30.969000 L 163.698000 30.975000 L 163.978000 30.985000 L 164.118000 30.989000 L 164.257000 30.992000 L 164.537000 30.996000 L 164.676000 30.998000 L 164.815000 30.999000 L 164.954000 30.999000 L 165.094000 31.000000 L 165.520000 31.000000 L 175.520000 31.250000 L 175.520000 31.500000 L 165.520000 31.750000 L 165.094000 31.750000 L 164.954000 31.751000 L 164.815000 31.751000 L 164.676000 31.752000 L 164.537000 31.754000 L 164.257000 31.758000 L 164.118000 31.761000 L 163.978000 31.765000 L 163.698000 31.775000 L 163.557000 31.781000 L 163.277000 31.797000 L 163.137000 31.806000 L 162.996000 31.817000 L 162.856000 31.829000 L 162.715000 31.842000 L 162.575000 31.856000 L 162.435000 31.872000 L 162.294000 31.890000 L 162.154000 31.909000 L 162.014000 31.930000 L 161.874000 31.952000 L 161.734000 31.977000 L 161.595000 32.003000 L 161.455000 32.031000 L 161.316000 32.061000 L 161.178000 32.093000 L 161.039000 32.128000 L 160.901000 32.164000 L 160.764000 32.203000 L 160.627000 32.244000 L 160.491000 32.288000 L 160.355000 32.334000 L 160.221000 32.382000 L 160.087000 32.433000 L 159.954000 32.487000 L 159.822000 32.543000 L 159.691000 32.602000 L 159.561000 32.663000 L 159.432000 32.727000 L 159.305000 32.794000 L 159.179000 32.863000 L 159.055000 32.934000 L 158.931000 33.008000 L 158.810000 33.084000 L 158.690000 33.163000 L 158.571000 33.244000 L 158.454000 33.327000 L 158.339000 33.412000 L 158.225000 33.500000 L 158.113000 33.590000 L 158.003000 33.682000 L 157.895000 33.776000 L 157.789000 33.873000 L 157.684000 33.971000 L 157.582000 34.072000 L 157.481000 34.174000 L 157.383000 34.279000 L 157.286000 34.385000 L 157.192000 34.493000 L 157.100000 34.603000 L 157.010000 34.715000 L 156.922000 34.829000 L 156.837000 34.944000 L 156.754000 35.061000 L 156.673000 35.180000 L 156.594000 35.300000 L 156.518000 35.421000 L 156.444000 35.545000 L 156.373000 35.669000 L 156.304000 35.795000 L 156.237000 35.922000 L 156.173000 36.051000 L 156.112000 36.181000 L 156.053000 36.312000 L 155.997000 36.444000 L 155.943000 36.577000 L 155.892000 36.711000 L 155.844000 36.845000 L 155.798000 36.981000 L 155.754000 37.117000 L 155.713000 37.254000 L 155.674000 37.391000 L 155.638000 37.529000 L 155.603000 37.668000 L 155.571000 37.806000 L 155.541000 37.945000 L 155.513000 38.085000 L 155.487000 38.224000 L 155.462000 38.364000 L 155.440000 38.504000 L 155.419000 38.644000 L 155.400000 38.784000 L 155.382000 38.925000 L 155.366000 39.065000 L 155.352000 39.205000 L 155.339000 39.346000 L 155.327000 39.486000 L 155.316000 39.627000 L 155.307000 39.767000 L 155.291000 40.047000 L 155.285000 40.188000 L 155.275000 40.468000 L 155.271000 40.608000 L 155.268000 40.747000 L 155.264000 41.027000 L 155.262000 41.166000 L 155.261000 41.305000 L 155.261000 41.444000 L 155.260000 41.584000 L 155.260000 49.415000 L 155.259000 49.554000 L 155.259000 49.692000 L 155.258000 49.830000 L 155.256000 49.967000 L 155.252000 50.243000 L 155.249000 50.380000 L 155.245000 50.517000 L 155.241000 50.655000 L 155.235000 50.792000 L 155.229000 50.928000 L 155.222000 51.065000 L 155.214000 51.202000 L 155.205000 51.338000 L 155.195000 51.474000 L 155.171000 51.746000 L 155.157000 51.881000 L 155.141000 52.016000 L 155.124000 52.151000 L 155.106000 52.285000 L 155.086000 52.420000 L 155.064000 52.553000 L 155.041000 52.687000 L 155.016000 52.820000 L 154.990000 52.952000 L 154.961000 53.084000 L 154.930000 53.216000 L 154.898000 53.346000 L 154.863000 53.477000 L 154.827000 53.606000 L 154.788000 53.735000 L 154.747000 53.863000 L 154.704000 53.990000 L 154.659000 54.116000 L 154.611000 54.241000 L 154.561000 54.365000 L 154.509000 54.488000 L 154.454000 54.610000 L 154.397000 54.731000 L 154.337000 54.851000 L 154.275000 54.969000 L 154.211000 55.087000 L 154.145000 55.203000 L 154.076000 55.317000 L 154.005000 55.431000 L 153.932000 55.543000 L 153.856000 55.653000 L 153.779000 55.762000 L 153.699000 55.869000 L 153.617000 55.975000 L 153.534000 56.079000 L 153.448000 56.182000 L 153.360000 56.283000 L 153.270000 56.382000 L 153.178000 56.479000 L 153.085000 56.575000 L 152.989000 56.668000 L 152.892000 56.760000 L 152.793000 56.850000 L 152.692000 56.938000 L 152.589000 57.024000 L 152.485000 57.107000 L 152.379000 57.189000 L 152.272000 57.269000 L 152.163000 57.346000 L 152.053000 57.422000 L 151.941000 57.495000 L 151.827000 57.566000 L 151.713000 57.635000 L 151.597000 57.701000 L 151.479000 57.765000 L 151.361000 57.827000 L 151.241000 57.887000 L 151.120000 57.944000 L 150.998000 57.999000 L 150.875000 58.051000 L 150.751000 58.101000 L 150.626000 58.149000 L 150.500000 58.194000 L 150.373000 58.237000 L 150.245000 58.278000 L 150.116000 58.317000 L 149.987000 58.353000 L 149.856000 58.388000 L 149.726000 58.420000 L 149.594000 58.451000 L 149.462000 58.480000 L 149.330000 58.506000 L 149.197000 58.531000 L 149.063000 58.554000 L 148.930000 58.576000 L 148.795000 58.596000 L 148.661000 58.614000 L 148.526000 58.631000 L 148.391000 58.647000 L 148.256000 58.661000 L 147.984000 58.685000 L 147.848000 58.695000 L 147.712000 58.704000 L 147.575000 58.712000 L 147.438000 58.719000 L 147.302000 58.725000 L 147.165000 58.731000 L 147.027000 58.735000 L 146.890000 58.739000 L 146.753000 58.742000 L 146.477000 58.746000 L 146.340000 58.748000 L 146.202000 58.749000 L 146.064000 58.749000 L 145.925000 58.750000 L 45.085000 58.750000 L 44.946000 58.749000 L 44.808000 58.749000 L 44.670000 58.748000 L 44.533000 58.746000 L 44.257000 58.742000 L 44.120000 58.739000 L 43.983000 58.735000 L 43.845000 58.731000 L 43.708000 58.725000 L 43.572000 58.719000 L 43.435000 58.712000 L 43.298000 58.704000 L 43.162000 58.695000 L 43.026000 58.685000 L 42.754000 58.661000 L 42.619000 58.647000 L 42.484000 58.631000 L 42.349000 58.614000 L 42.215000 58.596000 L 42.080000 58.576000 L 41.947000 58.554000 L 41.813000 58.531000 L 41.680000 58.506000 L 41.548000 58.480000 L 41.416000 58.451000 L 41.284000 58.420000 L 41.154000 58.388000 L 41.023000 58.353000 L 40.894000 58.317000 L 40.765000 58.278000 L 40.637000 58.237000 L 40.510000 58.194000 L 40.384000 58.149000 L 40.259000 58.101000 L 40.135000 58.051000 L 40.012000 57.999000 L 39.890000 57.944000 L 39.769000 57.887000 L 39.649000 57.827000 L 39.531000 57.765000 L 39.413000 57.701000 L 39.297000 57.635000 L 39.183000 57.566000 L 39.069000 57.495000 L 38.957000 57.422000 L 38.847000 57.346000 L 38.738000 57.269000 L 38.631000 57.189000 L 38.525000 57.107000 L 38.421000 57.024000 L 38.318000 56.938000 L 38.217000 56.850000 L 38.118000 56.760000 L 38.021000 56.668000 L 37.925000 56.575000 L 37.832000 56.479000 L 37.740000 56.382000 L 37.650000 56.283000 L 37.562000 56.182000 L 37.476000 56.079000 L 37.393000 55.975000 L 37.311000 55.869000 L 37.231000 55.762000 L 37.154000 55.653000 L 37.078000 55.543000 L 37.005000 55.431000 L 36.934000 55.317000 L 36.865000 55.203000 L 36.799000 55.087000 L 36.735000 54.969000 L 36.673000 54.851000 L 36.613000 54.731000 L 36.556000 54.610000 L 36.501000 54.488000 L 36.449000 54.365000 L 36.399000 54.241000 L 36.351000 54.116000 L 36.306000 53.990000 L 36.263000 53.863000 L 36.222000 53.735000 L 36.183000 53.606000 L 36.147000 53.477000 L 36.112000 53.346000 L 36.080000 53.216000 L 36.049000 53.084000 L 36.020000 52.952000 L 35.994000 52.820000 L 35.969000 52.687000 L 35.946000 52.553000 L 35.924000 52.420000 L 35.904000 52.285000 L 35.886000 52.151000 L 35.869000 52.016000 L 35.853000 51.881000 L 35.839000 51.746000 L 35.815000 51.474000 L 35.805000 51.338000 L 35.796000 51.202000 L 35.788000 51.065000 L 35.781000 50.928000 L 35.775000 50.792000 L 35.769000 50.655000 L 35.765000 50.517000 L 35.761000 50.380000 L 35.758000 50.243000 L 35.754000 49.967000 L 35.752000 49.830000 L 35.751000 49.692000 L 35.751000 49.554000 L 35.750000 49.415000 L 35.750000 41.584000 L 35.749000 41.444000 L 35.749000 41.305000 L 35.748000 41.166000 L 35.746000 41.027000 L 35.742000 40.747000 L 35.739000 40.608000 L 35.735000 40.468000 L 35.725000 40.188000 L 35.719000 40.047000 L 35.703000 39.767000 L 35.694000 39.627000 L 35.683000 39.486000 L 35.671000 39.346000 L 35.658000 39.205000 L 35.644000 39.065000 L 35.628000 38.925000 L 35.610000 38.784000 L 35.591000 38.644000 L 35.570000 38.504000 L 35.548000 38.364000 L 35.523000 38.224000 L 35.497000 38.085000 L 35.469000 37.945000 L 35.439000 37.806000 L 35.407000 37.668000 L 35.372000 37.529000 L 35.336000 37.391000 L 35.297000 37.254000 L 35.256000 37.117000 L 35.212000 36.981000 L 35.166000 36.845000 L 35.118000 36.711000 L 35.067000 36.577000 L 35.013000 36.444000 L 34.957000 36.312000 L 34.898000 36.181000 L 34.837000 36.051000 L 34.773000 35.922000 L 34.706000 35.795000 L 34.637000 35.669000 L 34.566000 35.545000 L 34.492000 35.421000 L 34.416000 35.300000 L 34.337000 35.180000 L 34.256000 35.061000 L 34.173000 34.944000 L 34.088000 34.829000 L 34.000000 34.715000 L 33.910000 34.603000 L 33.818000 34.493000 L 33.724000 34.385000 L 33.627000 34.279000 L 33.529000 34.174000 L 33.428000 34.072000 L 33.326000 33.971000 L 33.221000 33.873000 L 33.115000 33.776000 L 33.007000 33.682000 L 32.897000 33.590000 L 32.785000 33.500000 L 32.671000 33.412000 L 32.556000 33.327000 L 32.439000 33.244000 L 32.320000 33.163000 L 32.200000 33.084000 L 32.079000 33.008000 L 31.955000 32.934000 L 31.831000 32.863000 L 31.705000 32.794000 L 31.578000 32.727000 L 31.449000 32.663000 L 31.319000 32.602000 L 31.188000 32.543000 L 31.056000 32.487000 L 30.923000 32.433000 L 30.789000 32.382000 L 30.655000 32.334000 L 30.519000 32.288000 L 30.383000 32.244000 L 30.246000 32.203000 L 30.109000 32.164000 L 29.971000 32.128000 L 29.832000 32.093000 L 29.694000 32.061000 L 29.555000 32.031000 L 29.415000 32.003000 L 29.276000 31.977000 L 29.136000 31.952000 L 28.996000 31.930000 L 28.856000 31.909000 L 28.716000 31.890000 L 28.575000 31.872000 L 28.435000 31.856000 L 28.295000 31.842000 L 28.154000 31.829000 L 28.014000 31.817000 L 27.873000 31.806000 L 27.733000 31.797000 L 27.453000 31.781000 L 27.312000 31.775000 L 27.032000 31.765000 L 26.892000 31.761000 L 26.753000 31.758000 L 26.473000 31.754000 L 26.334000 31.752000 L 26.195000 31.751000 L 26.056000 31.751000 L 25.916000 31.750000 L 25.500000 31.750000 L 15.500000 31.500000 L 10.000000 31.500000 L 0.000000 31.750000 L 0.000000 32.250000 L 10.000000 32.500000 L 10.000000 32.625000 L 15.500000 32.625000 L 15.500000 32.500000 L 25.500000 32.250000 L 25.915000 32.250000 L 26.054000 32.251000 L 26.192000 32.251000 L 26.330000 32.252000 L 26.467000 32.254000 L 26.743000 32.258000 L 26.880000 32.261000 L 27.017000 32.265000 L 27.155000 32.269000 L 27.292000 32.275000 L 27.428000 32.281000 L 27.565000 32.288000 L 27.702000 32.296000 L 27.838000 32.305000 L 27.974000 32.315000 L 28.246000 32.339000 L 28.381000 32.353000 L 28.516000 32.369000 L 28.651000 32.386000 L 28.785000 32.404000 L 28.920000 32.424000 L 29.053000 32.446000 L 29.187000 32.469000 L 29.320000 32.494000 L 29.452000 32.520000 L 29.584000 32.549000 L 29.716000 32.580000 L 29.846000 32.612000 L 29.977000 32.647000 L 30.106000 32.683000 L 30.235000 32.722000 L 30.363000 32.763000 L 30.490000 32.806000 L 30.616000 32.851000 L 30.741000 32.899000 L 30.865000 32.949000 L 30.988000 33.001000 L 31.110000 33.056000 L 31.231000 33.113000 L 31.351000 33.173000 L 31.469000 33.235000 L 31.587000 33.299000 L 31.703000 33.365000 L 31.817000 33.434000 L 31.931000 33.505000 L 32.043000 33.578000 L 32.153000 33.654000 L 32.262000 33.731000 L 32.369000 33.811000 L 32.475000 33.893000 L 32.579000 33.976000 L 32.682000 34.062000 L 32.783000 34.150000 L 32.882000 34.240000 L 32.979000 34.332000 L 33.075000 34.425000 L 33.168000 34.521000 L 33.260000 34.618000 L 33.350000 34.717000 L 33.438000 34.818000 L 33.524000 34.921000 L 33.607000 35.025000 L 33.689000 35.131000 L 33.769000 35.238000 L 33.846000 35.347000 L 33.922000 35.457000 L 33.995000 35.569000 L 34.066000 35.683000 L 34.135000 35.797000 L 34.201000 35.913000 L 34.265000 36.031000 L 34.327000 36.149000 L 34.387000 36.269000 L 34.444000 36.390000 L 34.499000 36.512000 L 34.551000 36.635000 L 34.601000 36.759000 L 34.649000 36.884000 L 34.694000 37.010000 L 34.737000 37.137000 L 34.778000 37.265000 L 34.817000 37.394000 L 34.853000 37.523000 L 34.888000 37.654000 L 34.920000 37.784000 L 34.951000 37.916000 L 34.980000 38.048000 L 35.006000 38.180000 L 35.031000 38.313000 L 35.054000 38.447000 L 35.076000 38.580000 L 35.096000 38.715000 L 35.114000 38.849000 L 35.131000 38.984000 L 35.147000 39.119000 L 35.161000 39.254000 L 35.185000 39.526000 L 35.195000 39.662000 L 35.204000 39.798000 L 35.212000 39.935000 L 35.219000 40.072000 L 35.225000 40.208000 L 35.231000 40.345000 L 35.235000 40.483000 L 35.239000 40.620000 L 35.242000 40.757000 L 35.246000 41.033000 L 35.248000 41.170000 L 35.249000 41.308000 L 35.249000 41.446000 L 35.250000 41.585000 L 35.250000 49.416000 L 35.251000 49.556000 L 35.251000 49.695000 L 35.252000 49.834000 L 35.254000 49.973000 L 35.258000 50.253000 L 35.261000 50.392000 L 35.265000 50.532000 L 35.275000 50.812000 L 35.281000 50.953000 L 35.297000 51.233000 L 35.306000 51.373000 L 35.317000 51.514000 L 35.329000 51.654000 L 35.342000 51.795000 L 35.356000 51.935000 L 35.372000 52.075000 L 35.390000 52.216000 L 35.409000 52.356000 L 35.430000 52.496000 L 35.452000 52.636000 L 35.477000 52.776000 L 35.503000 52.915000 L 35.531000 53.055000 L 35.561000 53.194000 L 35.593000 53.332000 L 35.628000 53.471000 L 35.664000 53.609000 L 35.703000 53.746000 L 35.744000 53.883000 L 35.788000 54.019000 L 35.834000 54.155000 L 35.882000 54.289000 L 35.933000 54.423000 L 35.987000 54.556000 L 36.043000 54.688000 L 36.102000 54.819000 L 36.163000 54.949000 L 36.227000 55.078000 L 36.294000 55.205000 L 36.363000 55.331000 L 36.434000 55.455000 L 36.508000 55.579000 L 36.584000 55.700000 L 36.663000 55.820000 L 36.744000 55.939000 L 36.827000 56.056000 L 36.912000 56.171000 L 37.000000 56.285000 L 37.090000 56.397000 L 37.182000 56.507000 L 37.276000 56.615000 L 37.373000 56.721000 L 37.471000 56.826000 L 37.572000 56.928000 L 37.674000 57.029000 L 37.779000 57.127000 L 37.885000 57.224000 L 37.993000 57.318000 L 38.103000 57.410000 L 38.215000 57.500000 L 38.329000 57.588000 L 38.444000 57.673000 L 38.561000 57.756000 L 38.680000 57.837000 L 38.800000 57.916000 L 38.921000 57.992000 L 39.045000 58.066000 L 39.169000 58.137000 L 39.295000 58.206000 L 39.422000 58.273000 L 39.551000 58.337000 L 39.681000 58.398000 L 39.812000 58.457000 L 39.944000 58.513000 L 40.077000 58.567000 L 40.211000 58.618000 L 40.345000 58.666000 L 40.481000 58.712000 L 40.617000 58.756000 L 40.754000 58.797000 L 40.891000 58.836000 L 41.029000 58.872000 L 41.168000 58.907000 L 41.306000 58.939000 L 41.445000 58.969000 L 41.585000 58.997000 L 41.724000 59.023000 L 41.864000 59.048000 L 42.004000 59.070000 L 42.144000 59.091000 L 42.284000 59.110000 L 42.425000 59.128000 L 42.565000 59.144000 L 42.705000 59.158000 L 42.846000 59.171000 L 42.986000 59.183000 L 43.127000 59.194000 L 43.267000 59.203000 L 43.547000 59.219000 L 43.688000 59.225000 L 43.968000 59.235000 L 44.108000 59.239000 L 44.247000 59.242000 L 44.527000 59.246000 L 44.666000 59.248000 L 44.805000 59.249000 L 44.944000 59.249000 L 45.084000 59.250000 L 145.926000 59.250000 L 146.066000 59.249000 L 146.205000 59.249000 L 146.344000 59.248000 L 146.483000 59.246000 L 146.763000 59.242000 L 146.902000 59.239000 L 147.042000 59.235000 L 147.322000 59.225000 L 147.463000 59.219000 L 147.743000 59.203000 L 147.883000 59.194000 L 148.024000 59.183000 L 148.164000 59.171000 L 148.305000 59.158000 L 148.445000 59.144000 L 148.585000 59.128000 L 148.726000 59.110000 L 148.866000 59.091000 L 149.006000 59.070000 L 149.146000 59.048000 L 149.286000 59.023000 L 149.425000 58.997000 L 149.565000 58.969000 L 149.704000 58.939000 L 149.842000 58.907000 L 149.981000 58.872000 L 150.119000 58.836000 L 150.256000 58.797000 L 150.393000 58.756000 L 150.529000 58.712000 L 150.665000 58.666000 L 150.799000 58.618000 L 150.933000 58.567000 L 151.066000 58.513000 L 151.198000 58.457000 L 151.329000 58.398000 L 151.459000 58.337000 L 151.588000 58.273000 L 151.715000 58.206000 L 151.841000 58.137000 L 151.965000 58.066000 L 152.089000 57.992000 L 152.210000 57.916000 L 152.330000 57.837000 L 152.449000 57.756000 L 152.566000 57.673000 L 152.681000 57.588000 L 152.795000 57.500000 L 152.907000 57.410000 L 153.017000 57.318000 L 153.125000 57.224000 L 153.231000 57.127000 L 153.336000 57.029000 L 153.438000 56.928000 L 153.539000 56.826000 L 153.637000 56.721000 L 153.734000 56.615000 L 153.828000 56.507000 L 153.920000 56.397000 L 154.010000 56.285000 L 154.098000 56.171000 L 154.183000 56.056000 L 154.266000 55.939000 L 154.347000 55.820000 L 154.426000 55.700000 L 154.502000 55.579000 L 154.576000 55.455000 L 154.647000 55.331000 L 154.716000 55.205000 L 154.783000 55.078000 L 154.847000 54.949000 L 154.908000 54.819000 L 154.967000 54.688000 L 155.023000 54.556000 L 155.077000 54.423000 L 155.128000 54.289000 L 155.176000 54.155000 L 155.222000 54.019000 L 155.266000 53.883000 L 155.307000 53.746000 L 155.346000 53.609000 L 155.382000 53.471000 L 155.417000 53.332000 L 155.449000 53.194000 L 155.479000 53.055000 L 155.507000 52.915000 L 155.533000 52.776000 L 155.558000 52.636000 L 155.580000 52.496000 L 155.601000 52.356000 L 155.620000 52.216000 L 155.638000 52.075000 L 155.654000 51.935000 L 155.668000 51.795000 L 155.681000 51.654000 L 155.693000 51.514000 L 155.704000 51.373000 L 155.713000 51.233000 L 155.729000 50.953000 L 155.735000 50.812000 L 155.745000 50.532000 L 155.749000 50.392000 L 155.752000 50.253000 L 155.756000 49.973000 L 155.758000 49.834000 L 155.759000 49.695000 L 155.759000 49.556000 L 155.760000 49.416000 L 155.760000 41.585000 Z"/>
  </g>
  <g id="layer047_datatype000">
    <path style="fill:#ff8000"
          d="M 45.600000 7.500000 L 40.600000 3.250000 L 29.600000 3.250000 L 29.600000 14.250000 L 40.600000 14.250000 L 45.600000 10.000000 L 145.400000 10.000000 L 150.400000 14.250000 L 161.400000 14.250000 L 161.400000 3.250000 L 150.400000 3.250000 L 145.400000 7.500000 Z"/>
  </g>
  <g id="layer044_datatype000">
    <path style="fill:#808080"
          d="M 159.250000 5.400000 L 158.550000 5.400000 L 158.550000 6.100000 L 159.250000 6.100000 Z"/>
    <path style="fill:#808080"
          d="M 32.450000 5.400000 L 31.750000 5.400000 L 31.750000 6.100000 L 32.450000 6.100000 Z"/>
    <path style="fill:#808080"
          d="M 157.250000 5.400000 L 156.550000 5.400000 L 156.550000 6.100000 L 157.250000 6.100000 Z"/>
    <path style="fill:#808080"
          d="M 34.450000 5.400000 L 33.750000 5.400000 L 33.750000 6.100000 L 34.450000 6.100000 Z"/>
    <path style="fill:#808080"
          d="M 155.250000 5.400000 L 154.550000 5.400000 L 154.550000 6.100000 L 155.250000 6.100000 Z"/>
    <path style="fill:#808080"
          d="M 36.450000 5.400000 L 35.750000 5.400000 L 35.750000 6.100000 L 36.450000 6.100000 Z"/>
    <path style="fill:#808080"
          d="M 38.450000 5.400000 L 37.750000 5.400000 L 37.750000 6.100000 L 38.450000 6.100000 Z"/>
    <path style="fill:#808080"
          d="M 153.250000 5.400000 L 152.550000 5.400000 L 152.550000 6.100000 L 153.250000 6.100000 Z"/>
    <path style="fill:#808080"
          d="M 159.250000 7.400000 L 158.550000 7.400000 L 158.550000 8.100000 L 159.250000 8.100000 Z"/>
    <path style="fill:#808080"
          d="M 32.450000 7.400000 L 31.750000 7.400000 L 31.750000 8.100000 L 32.450000 8.100000 Z"/>
    <path style="fill:#808080"
          d="M 34.450000 7.400000 L 33.750000 7.400000 L 33.750000 8.100000 L 34.450000 8.100000 Z"/>
    <path style="fill:#808080"
          d="M 36.450000 7.400000 L 35.750000 7.400000 L 35.750000 8.100000 L 36.450000 8.100000 Z"/>
    <path style="fill:#808080"
          d="M 38.450000 7.400000 L 37.750000 7.400000 L 37.750000 8.100000 L 38.450000 8.100000 Z"/>
    <path style="fill:#808080"
          d="M 153.250000 7.400000 L 152.550000 7.400000 L 152.550000 8.100000 L 153.250000 8.100000 Z"/>
    <path style="fill:#808080"
          d="M 157.250000 7.400000 L 156.550000 7.400000 L 156.550000 8.100000 L 157.250000 8.100000 Z"/>
    <path style="fill:#808080"
          d="M 155.250000 7.400000 L 154.550000 7.400000 L 154.550000 8.100000 L 155.250000 8.100000 Z"/>
    <path style="fill:#808080"
          d="M 153.250000 9.400000 L 152.550000 9.400000 L 152.550000 10.100000 L 153.250000 10.100000 Z"/>
    <path style="fill:#808080"
          d="M 32.450000 9.400000 L 31.750000 9.400000 L 31.750000 10.100000 L 32.450000 10.100000 Z"/>
    <path style="fill:#808080"
          d="M 159.250000 9.400000 L 158.550000 9.400000 L 158.550000 10.100000 L 159.250000 10.100000 Z"/>
    <path style="fill:#808080"
          d="M 34.450000 9.400000 L 33.750000 9.400000 L 33.750000 10.100000 L 34.450000 10.100000 Z"/>
    <path style="fill:#808080"
          d="M 157.250000 9.400000 L 156.550000 9.400000 L 156.550000 10.100000 L 157.250000 10.100000 Z"/>
    <path style="fill:#808080"
          d="M 36.450000 9.400000 L 35.750000 9.400000 L 35.750000 10.100000 L 36.450000 10.100000 Z"/>
    <path style="fill:#808080"
          d="M 38.450000 9.400000 L 37.750000 9.400000 L 37.750000 10.100000 L 38.450000 10.100000 Z"/>
    <path style="fill:#808080"
          d="M 155.250000 9.400000 L 154.550000 9.400000 L 154.550000 10.100000 L 155.250000 10.100000 Z"/>
    <path style="fill:#808080"
          d="M 157.250000 11.400000 L 156.550000 11.400000 L 156.550000 12.100000 L 157.250000 12.100000 Z"/>
    <path style="fill:#808080"
          d="M 36.450000 11.400000 L 35.750000 11.400000 L 35.750000 12.100000 L 36.450000 12.100000 Z"/>
    <path style="fill:#808080"
          d="M 38.450000 11.400000 L 37.750000 11.400000 L 37.750000 12.100000 L 38.450000 12.100000 Z"/>
    <path style="fill:#808080"
          d="M 34.450000 11.400000 L 33.750000 11.400000 L 33.750000 12.100000 L 34.450000 12.100000 Z"/>
    <path style="fill:#808080"
          d="M 159.250000 11.400000 L 158.550000 11.400000 L 158.550000 12.100000 L 159.250000 12.100000 Z"/>
    <path style="fill:#808080"
          d="M 155.250000 11.400000 L 154.550000 11.400000 L 154.550000 12.100000 L 155.250000 12.100000 Z"/>
    <path style="fill:#808080"
          d="M 153.250000 11.400000 L 152.550000 11.400000 L 152.550000 12.100000 L 153.250000 12.100000 Z"/>
    <path style="fill:#808080"
          d="M 32.450000 11.400000 L 31.750000 11.400000 L 31.750000 12.100000 L 32.450000 12.100000 Z"/>
  </g>
  <g id="layer045_datatype000">
    <path style="fill:#008050"
          d="M 161.400000 3.250000 L 150.400000 3.250000 L 150.400000 14.250000 L 161.400000 14.250000 Z"/>
    <path style="fill:#008050"
          d="M 40.600000 3.250000 L 29.600000 3.250000 L 29.600000 14.250000 L 40.600000 14.250000 Z"/>
  </g>
  <g id="layer043_datatype000">
    <path style="fill:#805000"
          d="M 35.450000 4.400000 L 34.750000 4.400000 L 34.750000 5.100000 L 35.450000 5.100000 Z"/>
    <path style="fill:#805000"
          d="M 152.250000 4.400000 L 151.550000 4.400000 L 151.550000 5.100000 L 152.250000 5.100000 Z"/>
    <path style="fill:#805000"
          d="M 154.250000 4.400000 L 153.550000 4.400000 L 153.550000 5.100000 L 154.250000 5.100000 Z"/>
    <path style="fill:#805000"
          d="M 39.450000 4.400000 L 38.750000 4.400000 L 38.750000 5.100000 L 39.450000 5.100000 Z"/>
    <path style="fill:#805000"
          d="M 37.450000 4.400000 L 36.750000 4.400000 L 36.750000 5.100000 L 37.450000 5.100000 Z"/>
    <path style="fill:#805000"
          d="M 156.250000 4.400000 L 155.550000 4.400000 L 155.550000 5.100000 L 156.250000 5.100000 Z"/>
    <path style="fill:#805000"
          d="M 33.450000 4.400000 L 32.750000 4.400000 L 32.750000 5.100000 L 33.450000 5.100000 Z"/>
    <path style="fill:#805000"
          d="M 158.250000 4.400000 L 157.550000 4.400000 L 157.550000 5.100000 L 158.250000 5.100000 Z"/>
    <path style="fill:#805000"
          d="M 31.450000 4.400000 L 30.750000 4.400000 L 30.750000 5.100000 L 31.450000 5.100000 Z"/>
    <path style="fill:#805000"
          d="M 160.250000 4.400000 L 159.550000 4.400000 L 159.550000 5.100000 L 160.250000 5.100000 Z"/>
    <path style="fill:#805000"
          d="M 35.450000 6.400000 L 34.750000 6.400000 L 34.750000 7.100000 L 35.450000 7.100000 Z"/>
    <path style="fill:#805000"
          d="M 160.250000 6.400000 L 159.550000 6.400000 L 159.550000 7.100000 L 160.250000 7.100000 Z"/>
    <path style="fill:#805000"
          d="M 37.450000 6.400000 L 36.750000 6.400000 L 36.750000 7.100000 L 37.450000 7.100000 Z"/>
    <path style="fill:#805000"
          d="M 33.450000 6.400000 L 32.750000 6.400000 L 32.750000 7.100000 L 33.450000 7.100000 Z"/>
    <path style="fill:#805000"
          d="M 39.450000 6.400000 L 38.750000 6.400000 L 38.750000 7.100000 L 39.450000 7.100000 Z"/>
    <path style="fill:#805000"
          d="M 152.250000 6.400000 L 151.550000 6.400000 L 151.550000 7.100000 L 152.250000 7.100000 Z"/>
    <path style="fill:#805000"
          d="M 31.450000 6.400000 L 30.750000 6.400000 L 30.750000 7.100000 L 31.450000 7.100000 Z"/>
    <path style="fill:#805000"
          d="M 154.250000 6.400000 L 153.550000 6.400000 L 153.550000 7.100000 L 154.250000 7.100000 Z"/>
    <path style="fill:#805000"
          d="M 156.250000 6.400000 L 155.550000 6.400000 L 155.550000 7.100000 L 156.250000 7.100000 Z"/>
    <path style="fill:#805000"
          d="M 158.250000 6.400000 L 157.550000 6.400000 L 157.550000 7.100000 L 158.250000 7.100000 Z"/>
    <path style="fill:#805000"
          d="M 156.250000 8.400000 L 155.550000 8.400000 L 155.550000 9.100000 L 156.250000 9.100000 Z"/>
    <path style="fill:#805000"
          d="M 158.250000 8.400000 L 157.550000 8.400000 L 157.550000 9.100000 L 158.250000 9.100000 Z"/>
    <path style="fill:#805000"
          d="M 35.450000 8.400000 L 34.750000 8.400000 L 34.750000 9.100000 L 35.450000 9.100000 Z"/>
    <path style="fill:#805000"
          d="M 37.450000 8.400000 L 36.750000 8.400000 L 36.750000 9.100000 L 37.450000 9.100000 Z"/>
    <path style="fill:#805000"
          d="M 33.450000 8.400000 L 32.750000 8.400000 L 32.750000 9.100000 L 33.450000 9.100000 Z"/>
    <path style="fill:#805000"
          d="M 39.450000 8.400000 L 38.750000 8.400000 L 38.750000 9.100000 L 39.450000 9.100000 Z"/>
    <path style="fill:#805000"
          d="M 160.250000 8.400000 L 159.550000 8.400000 L 159.550000 9.100000 L 160.250000 9.100000 Z"/>
    <path style="fill:#805000"
          d="M 152.250000 8.400000 L 151.550000 8.400000 L 151.550000 9.100000 L 152.250000 9.100000 Z"/>
    <path style="fill:#805000"
          d="M 31.450000 8.400000 L 30.750000 8.400000 L 30.750000 9.100000 L 31.450000 9.100000 Z"/>
    <path style="fill:#805000"
          d="M 154.250000 8.400000 L 153.550000 8.400000 L 153.550000 9.100000 L 154.250000 9.100000 Z"/>
    <path style="fill:#805000"
          d="M 154.250000 10.400000 L 153.550000 10.400000 L 153.550000 11.100000 L 154.250000 11.100000 Z"/>
    <path style="fill:#805000"
          d="M 33.450000 10.400000 L 32.750000 10.400000 L 32.750000 11.100000 L 33.450000 11.100000 Z"/>
    <path style="fill:#805000"
          d="M 160.250000 10.400000 L 159.550000 10.400000 L 159.550000 11.100000 L 160.250000 11.100000 Z"/>
    <path style="fill:#805000"
          d="M 35.450000 10.400000 L 34.750000 10.400000 L 34.750000 11.100000 L 35.450000 11.100000 Z"/>
    <path style="fill:#805000"
          d="M 31.450000 10.400000 L 30.750000 10.400000 L 30.750000 11.100000 L 31.450000 11.100000 Z"/>
    <path style="fill:#805000"
          d="M 158.250000 10.400000 L 157.550000 10.400000 L 157.550000 11.100000 L 158.250000 11.100000 Z"/>
    <path style="fill:#805000"
          d="M 37.450000 10.400000 L 36.750000 10.400000 L 36.750000 11.100000 L 37.450000 11.100000 Z"/>
    <path style="fill:#805000"
          d="M 39.450000 10.400000 L 38.750000 10.400000 L 38.750000 11.100000 L 39.450000 11.100000 Z"/>
    <path style="fill:#805000"
          d="M 156.250000 10.400000 L 155.550000 10.400000 L 155.550000 11.100000 L 156.250000 11.100000 Z"/>
    <path style="fill:#805000"
          d="M 152.250000 10.400000 L 151.550000 10.400000 L 151.550000 11.100000 L 152.250000 11.100000 Z"/>
    <path style="fill:#805000"
          d="M 37.450000 12.400000 L 36.750000 12.400000 L 36.750000 13.100000 L 37.450000 13.100000 Z"/>
    <path style="fill:#805000"
          d="M 158.250000 12.400000 L 157.550000 12.400000 L 157.550000 13.100000 L 158.250000 13.100000 Z"/>
    <path style="fill:#805000"
          d="M 35.450000 12.400000 L 34.750000 12.400000 L 34.750000 13.100000 L 35.450000 13.100000 Z"/>
    <path style="fill:#805000"
          d="M 39.450000 12.400000 L 38.750000 12.400000 L 38.750000 13.100000 L 39.450000 13.100000 Z"/>
    <path style="fill:#805000"
          d="M 160.250000 12.400000 L 159.550000 12.400000 L 159.550000 13.100000 L 160.250000 13.100000 Z"/>
    <path style="fill:#805000"
          d="M 33.450000 12.400000 L 32.750000 12.400000 L 32.750000 13.100000 L 33.450000 13.100000 Z"/>
    <path style="fill:#805000"
          d="M 152.250000 12.400000 L 151.550000 12.400000 L 151.550000 13.100000 L 152.250000 13.100000 Z"/>
    <path style="fill:#805000"
          d="M 156.250000 12.400000 L 155.550000 12.400000 L 155.550000 13.100000 L 156.250000 13.100000 Z"/>
    <path style="fill:#805000"
          d="M 154.250000 12.400000 L 153.550000 12.400000 L 153.550000 13.100000 L 154.250000 13.100000 Z"/>
    <path style="fill:#805000"
          d="M 31.450000 12.400000 L 30.750000 12.400000 L 30.750000 13.100000 L 31.450000 13.100000 Z"/>
  </g>
  <g id="layer049_datatype000">
    <path style="fill:#800057"
          d="M 161.400000 3.250000 L 150.400000 3.250000 L 150.400000 14.250000 L 161.400000 14.250000 Z"/>
    <path style="fill:#800057"
          d="M 40.600000 3.250000 L 29.600000 3.250000 L 29.600000 14.250000 L 40.600000 14.250000 Z"/>
  </g>
</svg>
